<svg width="60" height="60" viewBox="0 0 60 60" fill="none" xmlns="http://www.w3.org/2000/svg">
<rect width="60" height="60" fill="#E5E5E5"/>
<g id="Google Ads" clip-path="url(#clip0_48_6)">
<g id="Frame 778">
<g id="3">
<rect width="1920" height="496" transform="translate(-1111 -210)" fill="white"/>
<rect id="Rectangle 281" x="-29.5" y="-29.5" width="119" height="119" rx="11.5" stroke="#C1D3DE"/>
<g id="icon">
<g id="Group">
<g id="Group_2">
<path id="Vector 2" d="M18.9915 15.3638L26.8149 15.1501C27.9839 16.2355 29.024 17.2014 30 18.1077" stroke="#C1D3DE" stroke-width="3" stroke-linecap="round" stroke-linejoin="round"/>
<path id="Rectangle 290" d="M39.0979 11.3405L45.9999 8.05502L56.4912 29.7109L49.2408 33.0919L39.0979 11.3405Z" stroke="#376FFF" stroke-width="3" stroke-linejoin="round"/>
<path id="Vector 4" d="M32.418 26.5376L42.9272 34.8776" stroke="#C1D3DE" stroke-width="3" stroke-linecap="round"/>
<path id="Vector 2_2" d="M40.9998 15.3639L33.1764 15.1501L21.2418 26.2322L25.6206 29.7072L32.4179 26.5376M42.9272 34.8776L48.1843 30.7711" stroke="#376FFF" stroke-width="3" stroke-linecap="round" stroke-linejoin="round"/>
<path id="Vector 3" d="M48.1843 30.7712L35.9562 40.3229C32.3818 43.115 27.3757 43.1517 23.7607 40.4123L12 31.5" stroke="#376FFF" stroke-width="3" stroke-linecap="round"/>
<path id="Rectangle 290_2" d="M20.8933 11.3405L13.9913 8.05497L3.49999 29.7109L10.7505 33.0918L20.8933 11.3405Z" stroke="#C1D3DE" stroke-width="3" stroke-linejoin="round"/>
</g>
</g>
<path id="Vector 4_2" d="M6 56H54" stroke="#C1D3DE" stroke-width="3" stroke-linecap="round"/>
</g>
</g>
</g>
</g>
<defs>
<clipPath id="clip0_48_6">
<rect width="1920" height="9774" fill="white" transform="translate(-1111 -1495)"/>
</clipPath>
</defs>
</svg>
