<svg width="60" height="60" viewBox="0 0 60 60" fill="none" xmlns="http://www.w3.org/2000/svg">
<g clip-path="url(#clip0_265_1126)">
<path d="M29.9397 47.5L29.9396 49L29.9395 47.5H29.9391H29.937L29.9283 47.5L29.8931 47.5L29.7536 47.4997C29.6309 47.4994 29.4498 47.4988 29.2175 47.4976C28.7529 47.4952 28.0838 47.4905 27.2673 47.4809C25.6337 47.4619 23.4135 47.4237 21.0637 47.3475C18.7113 47.2712 16.2421 47.1571 14.1065 46.9873C11.9519 46.816 10.2677 46.5965 9.36859 46.3419C8.47151 46.0336 7.61222 45.5354 6.96797 44.8813C6.2945 44.1976 5.82535 43.4386 5.53525 42.4746C3.81332 35.4377 4.3676 24.1188 5.55327 16.4665C5.84463 15.5304 6.30827 14.7884 6.96797 14.1187C7.73118 13.3439 8.44011 12.8544 9.21795 12.6964L9.27825 12.6842L9.33734 12.667C10.2278 12.4088 11.9329 12.1861 14.1248 12.0127C16.2718 11.8429 18.7563 11.7288 21.1238 11.6525C23.4888 11.5763 25.7242 11.5381 27.3691 11.5191C28.1913 11.5095 28.8652 11.5048 29.3331 11.5024C29.567 11.5012 29.7494 11.5006 29.873 11.5003L30.0135 11.5L30.049 11.5L30.0578 11.5L30.0599 11.5H30.0603L30.0604 10L30.0605 11.5H30.061L30.063 11.5L30.0717 11.5L30.107 11.5L30.2464 11.5003C30.3692 11.5006 30.5502 11.5012 30.7825 11.5024C31.2471 11.5048 31.9162 11.5095 32.7327 11.5191C34.3663 11.5381 36.5865 11.5763 38.9363 11.6525C41.2887 11.7288 43.7579 11.8429 45.8935 12.0127C48.0734 12.186 49.7717 12.4086 50.6627 12.667L50.7062 12.6797L50.7504 12.6896C51.4165 12.8399 52.134 13.3296 52.9112 14.1187C53.5847 14.8024 54.0539 15.5615 54.344 16.5254C56.0673 23.5664 55.6284 34.8827 54.333 42.5004C54.0254 43.3936 53.5403 44.2428 52.9112 44.8813C52.2657 45.5367 51.4043 46.0356 50.5052 46.3438C49.6438 46.5956 47.9796 46.8154 45.8233 46.9874C43.6937 47.1571 41.221 47.2712 38.8609 47.3475C36.5036 47.4237 34.272 47.4619 32.629 47.4809C31.8078 47.4905 31.1344 47.4952 30.6667 47.4976C30.4329 47.4988 30.2506 47.4994 30.127 47.4997L29.9865 47.5L29.951 47.5L29.9423 47.5H29.9402H29.9397Z" stroke="#8B9BAB" stroke-width="3"/>
<path d="M24.624 37.8394L38.6374 29.4998L24.624 21.1602V37.8394Z" fill="#376FFF"/>
</g>
<path d="M6 54L2 58" stroke="#8B9BAB" stroke-width="3" stroke-linecap="round" stroke-linejoin="round"/>
<path d="M58 54L54 58" stroke="#8B9BAB" stroke-width="3" stroke-linecap="round" stroke-linejoin="round"/>
<path d="M14 54L10 58" stroke="#8B9BAB" stroke-width="3" stroke-linecap="round" stroke-linejoin="round"/>
<path d="M23 54L19 58" stroke="#8B9BAB" stroke-width="3" stroke-linecap="round" stroke-linejoin="round"/>
<path d="M31 54L27 58" stroke="#8B9BAB" stroke-width="3" stroke-linecap="round" stroke-linejoin="round"/>
<path d="M40 54L36 58" stroke="#8B9BAB" stroke-width="3" stroke-linecap="round" stroke-linejoin="round"/>
<path d="M49 54L45 58" stroke="#8B9BAB" stroke-width="3" stroke-linecap="round" stroke-linejoin="round"/>
<path d="M6 2L2 6" stroke="#8B9BAB" stroke-width="3" stroke-linecap="round" stroke-linejoin="round"/>
<path d="M58 2L54 6" stroke="#8B9BAB" stroke-width="3" stroke-linecap="round" stroke-linejoin="round"/>
<path d="M14 2L10 6" stroke="#8B9BAB" stroke-width="3" stroke-linecap="round" stroke-linejoin="round"/>
<path d="M23 2L19 6" stroke="#8B9BAB" stroke-width="3" stroke-linecap="round" stroke-linejoin="round"/>
<path d="M31 2L27 6" stroke="#8B9BAB" stroke-width="3" stroke-linecap="round" stroke-linejoin="round"/>
<path d="M40 2L36 6" stroke="#8B9BAB" stroke-width="3" stroke-linecap="round" stroke-linejoin="round"/>
<path d="M49 2L45 6" stroke="#8B9BAB" stroke-width="3" stroke-linecap="round" stroke-linejoin="round"/>
<defs>
<clipPath id="clip0_265_1126">
<rect width="54" height="39" fill="white" transform="translate(3 10)"/>
</clipPath>
</defs>
</svg>
