<svg width="114" height="32" fill="none" xmlns="http://www.w3.org/2000/svg"><path fill-rule="evenodd" clip-rule="evenodd" d="M39.177 32h5.6L22.4 0l-8.137 11.632-4.206-6.728-2.903 4.15L19.2 27.895 8.503 27.85l3.04-4.38-2.652-4.15-5.965 8.507h-.023L0 32h26.994L16.891 15.829 22.4 7.914 39.177 32Z" fill="#242A56"/><path d="M50.05 14.171h3.315c2.944 0 4.672-1.856 4.672-4.53 0-2.689-1.843-4.558-4.71-4.558H50.05v9.088Zm2.355-2.163V7.247h.973c1.19 0 2.112 1.036 2.112 2.393 0 1.306-.91 2.368-2.291 2.368h-.794ZM61.71 14.171h2.51V5.083h-2.51v9.088ZM72.637 14.287c1.408 0 2.828-.487 3.648-1.101V8.962h-3.84v1.958h1.548v.845a3.097 3.097 0 0 1-1.356.294c-1.408 0-2.202-1.113-2.202-2.419 0-1.549.986-2.406 2.1-2.406.946 0 1.612.448 2.022.845l1.728-1.447c-.922-1.1-2.42-1.69-3.75-1.69-2.958 0-4.647 2.074-4.647 4.698 0 2.995 2.112 4.647 4.749 4.647ZM80.08 14.171h2.51V5.083h-2.51v9.088ZM88.37 14.171h2.496V7.247h2.265V5.083h-7.027v2.164h2.266v6.924ZM94.958 14.171h2.547l.461-1.472h2.919l.46 1.472h2.535l-3.29-9.088h-2.33l-3.302 9.088Zm3.635-3.507.82-2.624h.025l.819 2.624h-1.664ZM107.097 14.171h6.055v-2.163h-3.546V5.083h-2.509v9.088ZM49.346 26.971h2.547l.46-1.472h2.92l.46 1.472h2.534l-3.29-9.088h-2.329l-3.302 9.088Zm3.635-3.507.82-2.624h.025l.819 2.624H52.98ZM65.414 27.087c1.408 0 2.829-.487 3.648-1.101v-4.224h-3.84v1.958h1.549v.845a3.097 3.097 0 0 1-1.357.294c-1.408 0-2.202-1.113-2.202-2.419 0-1.549.986-2.406 2.1-2.406.947 0 1.612.448 2.022.845l1.728-1.447c-.921-1.1-2.42-1.69-3.75-1.69-2.957 0-4.647 2.074-4.647 4.698 0 2.995 2.112 4.647 4.75 4.647ZM72.794 26.971h6.31v-2.163H75.15V23.49h2.88v-2.074h-2.88v-1.37h3.686v-2.163h-6.042v9.088ZM82.717 26.971h2.381v-4.979h.026l3.148 4.98h2.394v-9.089h-2.394v5.133l-.025.013-3.213-5.146h-2.317v9.088ZM99.032 27.1a4.761 4.761 0 0 0 3.699-1.729l-1.779-1.536c-.487.59-1.165.922-1.92.922-1.37 0-2.19-1.075-2.19-2.317 0-1.536 1.063-2.355 2.19-2.355.844 0 1.536.512 1.92.947l1.779-1.523a4.826 4.826 0 0 0-3.7-1.766c-3.033 0-4.748 2.086-4.748 4.697 0 3.034 2.06 4.66 4.749 4.66ZM108.351 26.971h2.483v-3.93l2.944-5.158h-2.816l-1.344 2.765h-.026l-1.382-2.765h-2.791l2.932 5.159v3.93Z" fill="#242A56"/></svg>