<svg width="238" height="67" fill="none" xmlns="http://www.w3.org/2000/svg"><path fill-rule="evenodd" clip-rule="evenodd" d="M81.914 67h11.709L46.835 0 29.822 24.355l-8.794-14.088-6.07 8.692 25.187 39.445-22.367-.095 6.357-9.17-5.544-8.69L6.117 58.26H6.07L0 67H56.441L35.318 33.142 46.835 16.57 81.915 67Z" fill="#242A56"/><path d="M104.648 29.671h6.931c6.156 0 9.769-3.886 9.769-9.487 0-5.628-3.854-9.54-9.849-9.54h-6.851V29.67Zm4.924-4.529v-9.97h2.034c2.489 0 4.416 2.171 4.416 5.012 0 2.734-1.9 4.958-4.791 4.958h-1.659ZM129.03 29.671h5.245V10.643h-5.245v19.028ZM151.874 29.913c2.944 0 5.915-1.019 7.627-2.305v-8.844h-8.029v4.1h3.239v1.769c-1.017.456-1.847.616-2.837.616-2.944 0-4.603-2.331-4.603-5.065 0-3.243 2.06-5.038 4.389-5.038 1.98 0 3.372.938 4.228 1.769l3.613-3.029c-1.927-2.305-5.058-3.537-7.841-3.537-6.182 0-9.715 4.341-9.715 9.835 0 6.271 4.416 9.729 9.929 9.729ZM167.439 29.671h5.245V10.643h-5.245v19.028ZM184.77 29.671h5.219V15.173h4.737v-4.53h-14.693v4.53h4.737V29.67ZM198.545 29.671h5.326l.964-3.082h6.102l.963 3.082h5.299l-6.878-19.028h-4.871l-6.905 19.028Zm7.601-7.343 1.713-5.494h.053l1.713 5.494h-3.479ZM223.926 29.671h12.659v-4.529h-7.413V10.643h-5.246v19.028ZM103.176 56.471h5.326l.963-3.082h6.102l.964 3.082h5.299l-6.878-19.028h-4.871l-6.905 19.028Zm7.6-7.343 1.713-5.494h.054l1.713 5.494h-3.48ZM136.773 56.713c2.944 0 5.914-1.019 7.627-2.305v-8.844h-8.029v4.1h3.238v1.769c-1.017.456-1.846.616-2.836.616-2.944 0-4.604-2.331-4.604-5.065 0-3.243 2.061-5.038 4.39-5.038 1.98 0 3.372.938 4.228 1.769l3.613-3.029c-1.927-2.305-5.058-3.537-7.841-3.537-6.183 0-9.715 4.341-9.715 9.835 0 6.271 4.415 9.729 9.929 9.729ZM152.204 56.471h13.194v-4.529h-8.27v-2.76h6.022V44.84h-6.022v-2.867h7.708v-4.53h-12.632v19.028ZM172.951 56.471h4.978V46.046h.053l6.584 10.425h5.005V37.443h-5.005V48.19l-.053.027-6.718-10.774h-4.844v19.028ZM207.062 56.74c3.372 0 6.102-1.609 7.735-3.619l-3.72-3.216c-1.017 1.233-2.436 1.93-4.015 1.93-2.863 0-4.576-2.251-4.576-4.85 0-3.217 2.221-4.932 4.576-4.932 1.767 0 3.212 1.072 4.015 1.983l3.72-3.189c-2.141-2.6-5.139-3.698-7.735-3.698-6.343 0-9.929 4.368-9.929 9.835 0 6.352 4.309 9.755 9.929 9.755ZM226.547 56.471h5.192v-8.227l6.156-10.8h-5.888l-2.81 5.788h-.054l-2.89-5.789h-5.835l6.129 10.8v8.228Z" fill="#242A56"/></svg>