<svg width="18" height="20" viewBox="0 0 18 20" fill="none" xmlns="http://www.w3.org/2000/svg">
<path fill-rule="evenodd" clip-rule="evenodd" d="M9.49983 3.93699C10.3624 3.71497 10.9998 2.93192 10.9998 2C10.9998 0.89543 10.1044 0 8.99983 0C7.89526 0 6.99983 0.89543 6.99983 2C6.99983 2.93192 7.63721 3.71497 8.49983 3.93699V8.06301C8.14238 8.15501 7.82361 8.34334 7.57284 8.59868L3.99928 6.53548C4.23831 5.67743 3.87886 4.73391 3.0718 4.26795C2.11521 3.71566 0.892031 4.04341 0.339746 5C-0.212539 5.95658 0.115211 7.17977 1.0718 7.73205C1.87886 8.19801 2.8757 8.03754 3.49928 7.40151L7.07235 9.46442C7.02508 9.63488 6.99983 9.81449 6.99983 10C6.99983 10.1855 7.02507 10.3651 7.07232 10.5355L3.49911 12.5985C2.87552 11.9625 1.87869 11.802 1.07162 12.2679C0.115038 12.8202 -0.212713 14.0434 0.339572 15C0.891857 15.9566 2.11504 16.2843 3.07162 15.732C3.87869 15.2661 4.23814 14.3226 3.99911 13.4645L7.57277 11.4013C7.82356 11.6566 8.14235 11.845 8.49983 11.937V16.063C7.63721 16.285 6.99983 17.0681 6.99983 18C6.99983 19.1046 7.89526 20 8.99983 20C10.1044 20 10.9998 19.1046 10.9998 18C10.9998 17.0681 10.3624 16.285 9.49983 16.063V11.937C9.85733 11.845 10.1761 11.6566 10.4269 11.4012L14.0007 13.4645C13.7617 14.3226 14.1211 15.2661 14.9282 15.7321C15.8848 16.2843 17.108 15.9566 17.6603 15C18.2125 14.0434 17.8848 12.8202 16.9282 12.2679C16.1211 11.802 15.1243 11.9625 14.5007 12.5985L10.9274 10.5354C10.9746 10.365 10.9998 10.1854 10.9998 10C10.9998 9.81452 10.9746 9.63494 10.9273 9.4645L14.5005 7.40151C15.1241 8.03754 16.121 8.19801 16.928 7.73205C17.8846 7.17977 18.2124 5.95658 17.6601 5C17.1078 4.04341 15.8846 3.71566 14.928 4.26795C14.121 4.73391 13.7615 5.67743 14.0005 6.53548L10.4269 8.59874C10.1761 8.34337 9.8573 8.15502 9.49983 8.06301V3.93699Z" fill="#376FFF"/>
</svg>
