<svg width="40" height="40" viewBox="0 0 40 40" fill="none" xmlns="http://www.w3.org/2000/svg">
<path fill-rule="evenodd" clip-rule="evenodd" d="M1.66699 19.9998C1.66699 30.1251 9.8751 38.3332 20.0003 38.3332C30.1255 38.3332 38.3337 30.1251 38.3337 19.9998C38.3337 9.87462 30.1255 1.6665 20.0003 1.6665C9.8751 1.6665 1.66699 9.87462 1.66699 19.9998ZM35.0003 19.9998C35.0003 28.2841 28.2846 34.9998 20.0003 34.9998C11.7161 34.9998 5.00033 28.2841 5.00033 19.9998C5.00033 11.7156 11.7161 4.99984 20.0003 4.99984C28.2846 4.99984 35.0003 11.7156 35.0003 19.9998ZM21.673 23.3304H23.3386V26.6638H16.6719V23.3304H18.3386V19.9971H16.6719V16.6638H21.673V23.3304ZM21.6681 13.3304C21.6681 14.2509 20.9217 14.9971 20.0009 14.9971C19.0801 14.9971 18.3337 14.2509 18.3337 13.3304C18.3337 12.4099 19.0801 11.6638 20.0009 11.6638C20.9217 11.6638 21.6681 12.4099 21.6681 13.3304Z" fill="#376FFF"/>
</svg>
